<svg xmlns="http://www.w3.org/2000/svg" xmlns:xlink="http://www.w3.org/1999/xlink" xmlns:lucid="lucid" width="1424" height="1578.89"><g transform="translate(622 196.88802083333334)" lucid:page-tab-id="0_0"><path d="M-620-128a12 12 0 0 1 12-12H788a12 12 0 0 1 12 12V88a12 12 0 0 1-12 12H-608a12 12 0 0 1-12-12z" stroke="#38bdf8" stroke-width="4" fill="#fff"/><path d="M-620-182.9a12 12 0 0 1 12-12h315.08a12 12 0 0 1 12 12v18.9a12 12 0 0 1-12 12H-608a12 12 0 0 1-12-12z" stroke="#38bdf8" stroke-width="4" fill="#38bdf8"/><use xlink:href="#a" transform="matrix(1,0,0,1,-612,-186.88802083333334) translate(0 21.58376736111111)"/><use xlink:href="#b" transform="matrix(1,0,0,1,-612,-186.88802083333334) translate(92.94704861111111 21.58376736111111)"/><use xlink:href="#c" transform="matrix(1,0,0,1,-612,-186.88802083333334) translate(105.59895833333334 21.58376736111111)"/><use xlink:href="#d" transform="matrix(1,0,0,1,-612,-186.88802083333334) translate(184.3967013888889 21.58376736111111)"/><use xlink:href="#e" transform="matrix(1,0,0,1,-612,-186.88802083333334) translate(213.46571180555557 21.58376736111111)"/><use xlink:href="#f" transform="matrix(1,0,0,1,-612,-186.88802083333334) translate(234.4184027777778 21.58376736111111)"/><use xlink:href="#g" transform="matrix(1,0,0,1,-612,-186.88802083333334) translate(300.2604166666667 21.58376736111111)"/><path d="M-620 272a12 12 0 0 1 12-12H788a12 12 0 0 1 12 12v656a12 12 0 0 1-12 12H-608a12 12 0 0 1-12-12z" stroke="#818cf8" stroke-width="4" fill="#fff"/><path d="M-620 217.1a12 12 0 0 1 12-12h305.92a12 12 0 0 1 12 12V236a12 12 0 0 1-12 12H-608a12 12 0 0 1-12-12z" stroke="#818cf8" stroke-width="4" fill="#818cf8"/><use xlink:href="#h" transform="matrix(1,0,0,1,-612,213.11197916666666) translate(0 21.58376736111111)"/><use xlink:href="#i" transform="matrix(1,0,0,1,-612,213.11197916666666) translate(78.79774305555556 21.58376736111111)"/><use xlink:href="#b" transform="matrix(1,0,0,1,-612,213.11197916666666) translate(154.35112847222223 21.58376736111111)"/><use xlink:href="#j" transform="matrix(1,0,0,1,-612,213.11197916666666) translate(167.00303819444446 21.58376736111111)"/><use xlink:href="#k" transform="matrix(1,0,0,1,-612,213.11197916666666) translate(229.8828125 21.58376736111111)"/><path d="M-260 1072a12 12 0 0 1 12-12h856a12 12 0 0 1 12 12v296a12 12 0 0 1-12 12h-856a12 12 0 0 1-12-12z" stroke="#2dd4bf" stroke-width="4" fill="#fff"/><path d="M-260 1017.1a12 12 0 0 1 12-12H27.3a12 12 0 0 1 12 12v18.9a12 12 0 0 1-12 12H-248a12 12 0 0 1-12-12z" stroke="#2dd4bf" stroke-width="4" fill="#2dd4bf"/><use xlink:href="#l" transform="matrix(1,0,0,1,-252,1013.1119791666666) translate(0 21.58376736111111)"/><use xlink:href="#b" transform="matrix(1,0,0,1,-252,1013.1119791666666) translate(130.82682291666669 21.58376736111111)"/><use xlink:href="#m" transform="matrix(1,0,0,1,-252,1013.1119791666666) translate(143.4787326388889 21.58376736111111)"/><use xlink:href="#n" transform="matrix(1,0,0,1,-252,1013.1119791666666) translate(199.20789930555557 21.58376736111111)"/><use xlink:href="#o" transform="matrix(1,0,0,1,-252,1013.1119791666666) translate(227.1484375 21.58376736111111)"/><path d="M-580-100.87a6 6 0 0 1 6-6h388a6 6 0 0 1 6 6V60.87a6 6 0 0 1-6 6h-388a6 6 0 0 1-6-6z" stroke="#38bdf8" stroke-width="3" fill="#fff"/><use xlink:href="#p" transform="matrix(1,0,0,1,-575,-101.87402343749999) translate(113.62955729166667 73.53385416666666)"/><use xlink:href="#q" transform="matrix(1,0,0,1,-575,-101.87402343749999) translate(176.62272135416669 73.53385416666666)"/><use xlink:href="#r" transform="matrix(1,0,0,1,-575,-101.87402343749999) translate(198.623046875 73.53385416666666)"/><use xlink:href="#s" transform="matrix(1,0,0,1,-575,-101.87402343749999) translate(238.46516927083331 73.53385416666666)"/><use xlink:href="#t" transform="matrix(1,0,0,1,-575,-101.87402343749999) translate(19.464518229166657 107.41276041666666)"/><use xlink:href="#q" transform="matrix(1,0,0,1,-575,-101.87402343749999) translate(72.15820312499999 107.41276041666666)"/><use xlink:href="#u" transform="matrix(1,0,0,1,-575,-101.87402343749999) translate(94.15852864583331 107.41276041666666)"/><use xlink:href="#q" transform="matrix(1,0,0,1,-575,-101.87402343749999) translate(143.67350260416663 107.41276041666666)"/><use xlink:href="#v" transform="matrix(1,0,0,1,-575,-101.87402343749999) translate(165.67382812499997 107.41276041666666)"/><use xlink:href="#q" transform="matrix(1,0,0,1,-575,-101.87402343749999) translate(251.15722656249997 107.41276041666666)"/><use xlink:href="#w" transform="matrix(1,0,0,1,-575,-101.87402343749999) translate(273.1575520833333 107.41276041666666)"/><path d="M-110-100.87a6 6 0 0 1 6-6h388a6 6 0 0 1 6 6V60.87a6 6 0 0 1-6 6h-388a6 6 0 0 1-6-6z" stroke="#38bdf8" stroke-width="3" fill="#fff"/><use xlink:href="#x" transform="matrix(1,0,0,1,-105,-101.87402343749999) translate(60.54850260416666 73.53385416666666)"/><use xlink:href="#y" transform="matrix(1,0,0,1,-105,-101.87402343749999) translate(111.78385416666666 73.53385416666666)"/><use xlink:href="#z" transform="matrix(1,0,0,1,-105,-101.87402343749999) translate(190.60221354166666 73.53385416666666)"/><use xlink:href="#A" transform="matrix(1,0,0,1,-105,-101.87402343749999) translate(265.39876302083337 73.53385416666666)"/><use xlink:href="#B" transform="matrix(1,0,0,1,-105,-101.87402343749999) translate(86.92952473958333 107.41276041666666)"/><use xlink:href="#C" transform="matrix(1,0,0,1,-105,-101.87402343749999) translate(150.23030598958331 107.41276041666666)"/><use xlink:href="#D" transform="matrix(1,0,0,1,-105,-101.87402343749999) translate(163.51481119791666 107.41276041666666)"/><use xlink:href="#C" transform="matrix(1,0,0,1,-105,-101.87402343749999) translate(220.16194661458331 107.41276041666666)"/><use xlink:href="#E" transform="matrix(1,0,0,1,-105,-101.87402343749999) translate(233.44645182291669 107.41276041666666)"/><path d="M360-100.87a6 6 0 0 1 6-6h388a6 6 0 0 1 6 6V60.87a6 6 0 0 1-6 6H366a6 6 0 0 1-6-6z" stroke="#38bdf8" stroke-width="3" fill="#fff"/><use xlink:href="#F" transform="matrix(1,0,0,1,365,-101.87402343749999) translate(89.70947265625 73.53385416666666)"/><use xlink:href="#G" transform="matrix(1,0,0,1,365,-101.87402343749999) translate(159.64111328125 73.53385416666666)"/><use xlink:href="#H" transform="matrix(1,0,0,1,365,-101.87402343749999) translate(19.117024739583343 107.41276041666666)"/><use xlink:href="#C" transform="matrix(1,0,0,1,365,-101.87402343749999) translate(105.64860026041667 107.41276041666666)"/><use xlink:href="#I" transform="matrix(1,0,0,1,365,-101.87402343749999) translate(118.93310546875 107.41276041666666)"/><use xlink:href="#C" transform="matrix(1,0,0,1,365,-101.87402343749999) translate(204.80387369791666 107.41276041666666)"/><use xlink:href="#J" transform="matrix(1,0,0,1,365,-101.87402343749999) translate(218.08837890625 107.41276041666666)"/><use xlink:href="#C" transform="matrix(1,0,0,1,365,-101.87402343749999) translate(293.75081380208337 107.41276041666666)"/><use xlink:href="#K" transform="matrix(1,0,0,1,365,-101.87402343749999) translate(307.03531901041663 107.41276041666666)"/><path d="M-110 306a6 6 0 0 1 6-6h388a6 6 0 0 1 6 6v148a6 6 0 0 1-6 6h-388a6 6 0 0 1-6-6z" stroke="#818cf8" stroke-width="3" fill="#fff"/><use xlink:href="#L" transform="matrix(1,0,0,1,-105,305) translate(113.93147786458334 66.54947916666666)"/><use xlink:href="#M" transform="matrix(1,0,0,1,-105,305) translate(193.26253255208334 66.54947916666666)"/><use xlink:href="#N" transform="matrix(1,0,0,1,-105,305) translate(84.9527994791667 100.42838541666666)"/><path d="M-110 546a6 6 0 0 1 6-6h388a6 6 0 0 1 6 6v148a6 6 0 0 1-6 6h-388a6 6 0 0 1-6-6z" stroke="#818cf8" stroke-width="3" fill="#fff"/><use xlink:href="#O" transform="matrix(1,0,0,1,-105,545) translate(135.55582682291669 66.54947916666666)"/><use xlink:href="#P" transform="matrix(1,0,0,1,-105,545) translate(193.44482421875 66.54947916666666)"/><use xlink:href="#Q" transform="matrix(1,0,0,1,-105,545) translate(54.52718098958334 100.42838541666666)"/><use xlink:href="#C" transform="matrix(1,0,0,1,-105,545) translate(212.31201171874997 100.42838541666666)"/><use xlink:href="#R" transform="matrix(1,0,0,1,-105,545) translate(225.59651692708331 100.42838541666666)"/><use xlink:href="#S" transform="matrix(1,0,0,1,-105,545) translate(308.1746419270833 100.42838541666666)"/><path d="M-580 546a6 6 0 0 1 6-6h388a6 6 0 0 1 6 6v148a6 6 0 0 1-6 6h-388a6 6 0 0 1-6-6z" stroke="#818cf8" stroke-width="3" fill="#fff"/><g><use xlink:href="#T" transform="matrix(1,0,0,1,-575,545) translate(102.52685546875 66.54947916666666)"/><use xlink:href="#q" transform="matrix(1,0,0,1,-575,545) translate(216.85791015625 66.54947916666666)"/><use xlink:href="#U" transform="matrix(1,0,0,1,-575,545) translate(238.85823567708334 66.54947916666666)"/><use xlink:href="#V" transform="matrix(1,0,0,1,-575,545) translate(44.734700520833314 100.42838541666666)"/><use xlink:href="#q" transform="matrix(1,0,0,1,-575,545) translate(189.5654296875 100.42838541666666)"/><use xlink:href="#W" transform="matrix(1,0,0,1,-575,545) translate(211.56575520833334 100.42838541666666)"/></g><path d="M360 546a6 6 0 0 1 6-6h388a6 6 0 0 1 6 6v148a6 6 0 0 1-6 6H366a6 6 0 0 1-6-6z" stroke="#818cf8" stroke-width="3" fill="#fff"/><g><use xlink:href="#X" transform="matrix(1,0,0,1,365,545) translate(110.54768880208334 66.54947916666666)"/><use xlink:href="#Y" transform="matrix(1,0,0,1,365,545) translate(180.58186848958334 66.54947916666666)"/><use xlink:href="#Z" transform="matrix(1,0,0,1,365,545) translate(122.1630859375 100.42838541666666)"/></g><path d="M140 766a6 6 0 0 1 6-6h388a6 6 0 0 1 6 6v148a6 6 0 0 1-6 6H146a6 6 0 0 1-6-6z" stroke="#818cf8" stroke-width="3" fill="#fff"/><g><use xlink:href="#X" transform="matrix(1,0,0,1,145,765) translate(110.54768880208334 66.54947916666666)"/><use xlink:href="#Y" transform="matrix(1,0,0,1,145,765) translate(180.58186848958334 66.54947916666666)"/><use xlink:href="#Z" transform="matrix(1,0,0,1,145,765) translate(122.1630859375 100.42838541666666)"/></g><path d="M90 463v58" stroke="#818cf8" stroke-width="3" fill="none"/><path d="M91.47 463.04h-2.94v-1.54h2.94z" stroke="#818cf8" stroke-width=".05" fill="#818cf8"/><path d="M90 535.5l-7.5-13h15z" stroke="#818cf8" stroke-width="3" fill="#818cf8"/><path d="M155 463v32.5a6 6 0 0 0 6 6h173a6 6 0 0 1 6 6V741" stroke="#818cf8" stroke-width="3" fill="none"/><path d="M156.47 463.04h-2.94v-1.54h2.94z" stroke="#818cf8" stroke-width=".05" fill="#818cf8"/><path d="M340 755.5l-7.5-13h15z" stroke="#818cf8" stroke-width="3" fill="#818cf8"/><path d="M17 463v31a6 6 0 0 1-6 6h-330a6 6 0 0 0-6 6v15" stroke="#818cf8" stroke-width="3" fill="none"/><path d="M18.48 463.04h-2.96v-1.54h2.96z" stroke="#818cf8" stroke-width=".05" fill="#818cf8"/><path d="M-325 535.5l-7.5-13h15z" stroke="#818cf8" stroke-width="3" fill="#818cf8"/><path d="M90 703v21a6 6 0 0 0 6 6h195.33a6 6 0 0 1 6 6v5" stroke="#818cf8" stroke-width="3" fill="none"/><path d="M91.47 703.04h-2.94v-1.54h2.94z" stroke="#818cf8" stroke-width=".05" fill="#818cf8"/><path d="M297.33 755.5l-7.5-13h15z" stroke="#818cf8" stroke-width="3" fill="#818cf8"/><path d="M560 703v21a6 6 0 0 1-6 6H387.33a6 6 0 0 0-6 6v5" stroke="#818cf8" stroke-width="3" fill="none"/><path d="M561.48 703.04h-2.96v-1.54h2.96z" stroke="#818cf8" stroke-width=".05" fill="#818cf8"/><path d="M381.33 755.5l-7.5-13h15z" stroke="#818cf8" stroke-width="3" fill="#818cf8"/><path d="M90 69.87V281" stroke="#38bdf8" stroke-width="3" fill="none"/><path d="M91.47 69.9h-2.94v-1.53h2.94z" stroke="#38bdf8" stroke-width=".05" fill="#38bdf8"/><path d="M90 295.5l-7.5-13h15z" stroke="#38bdf8" stroke-width="3" fill="#38bdf8"/><path d="M510 69.87v107.57a6 6 0 0 1-6 6H145a6 6 0 0 0-6 6V281" stroke="#38bdf8" stroke-width="3" fill="none"/><path d="M511.48 69.9h-2.96v-1.53h2.96z" stroke="#38bdf8" stroke-width=".05" fill="#38bdf8"/><path d="M139 295.5l-7.5-13h15z" stroke="#38bdf8" stroke-width="3" fill="#38bdf8"/><path d="M560 69.87V521" stroke="#38bdf8" stroke-width="3" fill="none"/><path d="M561.48 69.9h-2.96v-1.53h2.96z" stroke="#38bdf8" stroke-width=".05" fill="#38bdf8"/><path d="M560 535.5l-7.5-13h15z" stroke="#38bdf8" stroke-width="3" fill="#38bdf8"/><path d="M-380 69.87V154a6 6 0 0 0 6 6h158a6 6 0 0 1 6 6v157.25a6 6 0 0 1-6 6h-158a6 6 0 0 0-6 6V521" stroke="#38bdf8" stroke-width="3" fill="none"/><path d="M-378.52 69.9h-2.96v-1.53h2.96z" stroke="#38bdf8" stroke-width=".05" fill="#38bdf8"/><path d="M-380 535.5l-7.5-13h15z" stroke="#38bdf8" stroke-width="3" fill="#38bdf8"/><path d="M-240 1126a6 6 0 0 1 6-6h348a6 6 0 0 1 6 6v222.63a6 6 0 0 1-6 6h-348a6 6 0 0 1-6-6z" stroke="#2dd4bf" stroke-width="3" fill="#fff"/><g><use xlink:href="#aa" transform="matrix(1,0,0,1,-235,1125) translate(109.04459635416667 53.365885416666664)"/><use xlink:href="#ab" transform="matrix(1,0,0,1,-235,1125) translate(168.642578125 53.365885416666664)"/><use xlink:href="#ac" transform="matrix(1,0,0,1,-235,1125) translate(43.86393229166666 87.24479166666666)"/><use xlink:href="#C" transform="matrix(1,0,0,1,-235,1125) translate(102.49348958333331 87.24479166666666)"/><use xlink:href="#ad" transform="matrix(1,0,0,1,-235,1125) translate(115.77799479166666 87.24479166666666)"/><use xlink:href="#C" transform="matrix(1,0,0,1,-235,1125) translate(165.16764322916666 87.24479166666666)"/><use xlink:href="#ae" transform="matrix(1,0,0,1,-235,1125) translate(178.4521484375 87.24479166666666)"/><use xlink:href="#C" transform="matrix(1,0,0,1,-235,1125) translate(235.6689453125 87.24479166666666)"/><use xlink:href="#af" transform="matrix(1,0,0,1,-235,1125) translate(248.95345052083334 87.24479166666666)"/><use xlink:href="#ag" transform="matrix(1,0,0,1,-235,1125) translate(299.4140625 87.24479166666666)"/><use xlink:href="#ah" transform="matrix(1,0,0,1,-235,1125) translate(127.01741536458334 121.12369791666666)"/><use xlink:href="#ai" transform="matrix(1,0,0,1,-235,1125) translate(216.26057942708331 121.12369791666666)"/><use xlink:href="#aj" transform="matrix(1,0,0,1,-235,1125) translate(8.767089843749972 155.00260416666666)"/><use xlink:href="#C" transform="matrix(1,0,0,1,-235,1125) translate(147.87841796875 155.00260416666666)"/><use xlink:href="#ak" transform="matrix(1,0,0,1,-235,1125) translate(161.16292317708334 155.00260416666666)"/><use xlink:href="#C" transform="matrix(1,0,0,1,-235,1125) translate(262.0841471354167 155.00260416666666)"/><use xlink:href="#al" transform="matrix(1,0,0,1,-235,1125) translate(275.36865234375 155.00260416666666)"/><use xlink:href="#ag" transform="matrix(1,0,0,1,-235,1125) translate(334.51090494791674 155.00260416666666)"/><use xlink:href="#am" transform="matrix(1,0,0,1,-235,1125) translate(30.955403645833314 188.88151041666666)"/><use xlink:href="#C" transform="matrix(1,0,0,1,-235,1125) translate(173.4619140625 188.88151041666666)"/><use xlink:href="#an" transform="matrix(1,0,0,1,-235,1125) translate(186.74641927083334 188.88151041666666)"/><use xlink:href="#C" transform="matrix(1,0,0,1,-235,1125) translate(238.03873697916669 188.88151041666666)"/><use xlink:href="#ao" transform="matrix(1,0,0,1,-235,1125) translate(251.32324218750003 188.88151041666666)"/></g><path d="M220 1126a6 6 0 0 1 6-6h348a6 6 0 0 1 6 6v222.63a6 6 0 0 1-6 6H226a6 6 0 0 1-6-6z" stroke="#2dd4bf" stroke-width="3" fill="#fff"/><g><use xlink:href="#O" transform="matrix(1,0,0,1,225,1125) translate(109.89908854166667 87.20377604166666)"/><use xlink:href="#ab" transform="matrix(1,0,0,1,225,1125) translate(167.7880859375 87.20377604166666)"/><use xlink:href="#ap" transform="matrix(1,0,0,1,225,1125) translate(69.13411458333333 121.08268229166666)"/><use xlink:href="#C" transform="matrix(1,0,0,1,225,1125) translate(167.66276041666669 121.08268229166666)"/><use xlink:href="#aq" transform="matrix(1,0,0,1,225,1125) translate(180.947265625 121.08268229166666)"/><use xlink:href="#ag" transform="matrix(1,0,0,1,225,1125) translate(274.1438802083333 121.08268229166666)"/><use xlink:href="#ar" transform="matrix(1,0,0,1,225,1125) translate(79.68424479166666 154.96158854166666)"/></g><path d="M340 923v151a6 6 0 0 1-6 6H-54a6 6 0 0 0-6 6v15" stroke="#818cf8" stroke-width="3" fill="none"/><path d="M341.48 923.04h-2.96v-1.54h2.96z" stroke="#818cf8" stroke-width=".05" fill="#818cf8"/><path d="M-60 1115.5l-7.5-13h15z" stroke="#818cf8" stroke-width="3" fill="#818cf8"/><path d="M400 923v178" stroke="#818cf8" stroke-width="3" fill="none"/><path d="M401.48 923.04h-2.96v-1.54h2.96z" stroke="#818cf8" stroke-width=".05" fill="#818cf8"/><path d="M400 1115.5l-7.5-13h15z" stroke="#818cf8" stroke-width="3" fill="#818cf8"/><defs><path d="M180 0v-1490h528c311 0 458 177 458 395 0 191-114 278-244 313v14c139 9 302 137 302 371 0 225-148 397-499 397H180zm190-168h350c232 0 321-102 321-231 0-149-120-277-311-277H370v508zm0-668h328c160 0 286-101 286-255 0-129-87-231-280-231H370v486" id="as"/><path d="M158 0v-1118h174v172h12c41-113 157-188 290-188 26 0 70 2 91 3v181c-11-2-60-10-108-10-161 0-279 109-279 260V0H158" id="at"/><path d="M613 24c-304 0-509-231-509-576 0-350 205-580 509-580 305 0 511 230 511 580 0 345-206 576-511 576zm0-161c226 0 329-195 329-415 0-222-103-419-329-419-223 0-326 196-326 419 0 220 103 415 326 415" id="au"/><path d="M409 0L70-1118h191c89 329 165 560 243 925 75-353 154-601 240-925h192c85 325 161 564 235 922 77-354 157-598 244-922h191L1267 0h-179c-86-307-176-590-250-913C763-588 675-308 588 0H409" id="av"/><path d="M538 24C308 24 148-78 108-271l171-41c32 123 123 178 257 178 156 0 256-77 256-169 0-77-54-128-164-154l-186-44c-203-48-300-148-300-305 0-192 176-326 414-326 230 0 351 112 402 269l-163 42c-31-80-94-158-238-158-133 0-233 69-233 162 0 83 57 129 188 160l169 40c203 48 298 149 298 302 0 196-179 339-441 339" id="aw"/><path d="M628 24c-324 0-524-230-524-574 0-343 198-582 503-582 237 0 487 146 487 559v75H286c9 234 145 362 343 362 132 0 231-58 273-172l174 48C1024-91 857 24 628 24zM287-650h624c-17-190-120-322-304-322-192 0-309 151-320 322" id="ax"/><g id="a"><use transform="matrix(0.010850694444444444,0,0,0.010850694444444444,0,0)" xlink:href="#as"/><use transform="matrix(0.010850694444444444,0,0,0.010850694444444444,14.539930555555555,0)" xlink:href="#at"/><use transform="matrix(0.010850694444444444,0,0,0.010850694444444444,22.53689236111111,0)" xlink:href="#au"/><use transform="matrix(0.010850694444444444,0,0,0.010850694444444444,35.46006944444444,0)" xlink:href="#av"/><use transform="matrix(0.010850694444444444,0,0,0.010850694444444444,53.64583333333333,0)" xlink:href="#aw"/><use transform="matrix(0.010850694444444444,0,0,0.010850694444444444,65.37543402777777,0)" xlink:href="#ax"/><use transform="matrix(0.010850694444444444,0,0,0.010850694444444444,78.33116319444444,0)" xlink:href="#at"/></g><path d="M295-573c-75 0-135-60-135-135s60-135 135-135 135 60 135 135-60 135-135 135" id="ay"/><use transform="matrix(0.010850694444444444,0,0,0.010850694444444444,0,0)" xlink:href="#ay" id="b"/><path d="M180 0v-1490h224l606 953c40 63 108 177 176 312-27-437-7-821-13-1265h190V0h-226C860-448 622-778 356-1262c27 476 11 792 15 1262H180" id="az"/><path d="M65 0l393-574-370-544h210c88 136 192 297 267 435 67-142 176-302 264-435h206L661-564 1053 0H844c-94-144-206-310-287-458C484-308 366-142 273 0H65" id="aA"/><path d="M598-1118v154H368v674c0 100 37 144 132 144 23 0 62-6 92-12L629-6c-37 13-88 20-134 20-193 0-307-107-307-290v-688H20v-154h168v-266h180v266h230" id="aB"/><path d="M295 13c-75 0-135-60-135-135s60-135 135-135 135 60 135 135S370 13 295 13" id="aC"/><path d="M157-1118h181V80c1 225-123 350-364 338V252c126 9 184-48 183-172v-1198zm91-183c-68 0-125-53-125-119s57-119 125-119c69 0 126 53 126 119s-57 119-126 119" id="aD"/><g id="c"><use transform="matrix(0.010850694444444444,0,0,0.010850694444444444,0,0)" xlink:href="#az"/><use transform="matrix(0.010850694444444444,0,0,0.010850694444444444,16.74262152777778,0)" xlink:href="#ax"/><use transform="matrix(0.010850694444444444,0,0,0.010850694444444444,29.19921875,0)" xlink:href="#aA"/><use transform="matrix(0.010850694444444444,0,0,0.010850694444444444,41.76432291666667,0)" xlink:href="#aB"/><use transform="matrix(0.010850694444444444,0,0,0.010850694444444444,49.03428819444445,0)" xlink:href="#aC"/><use transform="matrix(0.010850694444444444,0,0,0.010850694444444444,55.43619791666667,0)" xlink:href="#aD"/><use transform="matrix(0.010850694444444444,0,0,0.010850694444444444,60.81814236111112,0)" xlink:href="#aw"/></g><path d="M653-1490V0H466v-1314h-10L96-1047v-204l324-239h233" id="aE"/><path d="M646 20c-249 0-524-159-524-708 0-524 209-822 547-822 250 0 431 161 467 395H950c-33-129-126-227-281-227-229 0-367 208-367 566h12c80-124 212-198 367-198 255 0 467 205 467 493 0 278-198 501-502 501zm0-167c179 0 318-148 318-334 0-182-133-328-313-328-181 0-322 156-322 330 0 176 134 332 317 332" id="aF"/><g id="d"><use transform="matrix(0.010850694444444444,0,0,0.010850694444444444,0,0)" xlink:href="#aE"/><use transform="matrix(0.010850694444444444,0,0,0.010850694444444444,9.038628472222221,0)" xlink:href="#aF"/></g><path d="M593-100v-404H195v-159h398v-403h169v403h398v159H762v404H593" id="aG"/><use transform="matrix(0.010850694444444444,0,0,0.010850694444444444,0,0)" xlink:href="#aG" id="e"/><path d="M180 0v-1490h510c348 0 508 194 508 460 0 198-88 351-276 417L1256 0h-220L726-579c-117 2-238 0-356 1V0H180zm190-747h312c235 0 327-108 327-283 0-177-92-293-329-293H370v576" id="aH"/><path d="M471 26C259 26 90-98 90-318c0-256 228-303 435-329 202-27 287-16 287-108 0-139-79-219-234-219-161 0-248 86-283 164l-173-57c86-203 278-265 451-265 150 0 419 46 419 395V0H815v-152h-12C765-73 660 26 471 26zm31-159c199 0 310-134 310-271v-155c-30 35-226 55-295 64-131 17-246 59-246 186 0 116 97 176 231 176" id="aI"/><path d="M613 24c-304 0-509-231-509-576 0-350 205-580 509-580 216 0 392 114 453 309l-173 49c-33-115-133-197-280-197-223 0-326 196-326 419 0 220 103 415 326 415 150 0 252-85 285-206l172 49C1010-95 832 24 613 24" id="aJ"/><g id="f"><use transform="matrix(0.010850694444444444,0,0,0.010850694444444444,0,0)" xlink:href="#aH"/><use transform="matrix(0.010850694444444444,0,0,0.010850694444444444,13.975694444444445,0)" xlink:href="#ax"/><use transform="matrix(0.010850694444444444,0,0,0.010850694444444444,27.1484375,0)" xlink:href="#aI"/><use transform="matrix(0.010850694444444444,0,0,0.010850694444444444,39.626736111111114,0)" xlink:href="#aJ"/><use transform="matrix(0.010850694444444444,0,0,0.010850694444444444,52.32204861111112,0)" xlink:href="#aB"/></g><path d="M603 20c-253 0-434-161-469-399h188c31 132 124 231 281 231 227 0 367-207 367-568h-12c-80 122-211 199-367 199-257 0-469-206-469-493 0-278 200-505 506-500 245 4 520 158 520 706 0 527-208 824-545 824zm16-703c181 0 324-157 324-332 0-171-135-328-318-328-180 0-317 148-317 332 0 183 131 328 311 328" id="aK"/><g id="g"><use transform="matrix(0.010850694444444444,0,0,0.010850694444444444,0,0)" xlink:href="#aE"/><use transform="matrix(0.010850694444444444,0,0,0.010850694444444444,9.038628472222221,0)" xlink:href="#aK"/></g><g id="h"><use transform="matrix(0.010850694444444444,0,0,0.010850694444444444,0,0)" xlink:href="#az"/><use transform="matrix(0.010850694444444444,0,0,0.010850694444444444,16.74262152777778,0)" xlink:href="#ax"/><use transform="matrix(0.010850694444444444,0,0,0.010850694444444444,29.19921875,0)" xlink:href="#aA"/><use transform="matrix(0.010850694444444444,0,0,0.010850694444444444,41.76432291666667,0)" xlink:href="#aB"/><use transform="matrix(0.010850694444444444,0,0,0.010850694444444444,49.03428819444445,0)" xlink:href="#aC"/><use transform="matrix(0.010850694444444444,0,0,0.010850694444444444,55.43619791666667,0)" xlink:href="#aD"/><use transform="matrix(0.010850694444444444,0,0,0.010850694444444444,60.81814236111112,0)" xlink:href="#aw"/></g><path d="M657 26c-323 0-524-166-541-416h195c15 169 171 246 346 246 202 0 356-106 356-265 5-203-294-238-475-293-239-73-380-191-380-389 0-252 224-419 512-419 294 0 499 171 508 396H992c-17-145-151-228-328-228-193 0-321 102-321 242 0 156 175 211 284 241l149 41c160 44 422 134 422 412 0 244-197 432-541 432" id="aL"/><path d="M481 0L54-1118h197c107 314 236 620 325 951 87-331 217-637 324-951h197L670 0H481" id="aM"/><g id="i"><use transform="matrix(0.010850694444444444,0,0,0.010850694444444444,0,0)" xlink:href="#aL"/><use transform="matrix(0.010850694444444444,0,0,0.010850694444444444,14.2578125,0)" xlink:href="#ax"/><use transform="matrix(0.010850694444444444,0,0,0.010850694444444444,27.213541666666664,0)" xlink:href="#at"/><use transform="matrix(0.010850694444444444,0,0,0.010850694444444444,35.92664930555555,0)" xlink:href="#aM"/><use transform="matrix(0.010850694444444444,0,0,0.010850694444444444,47.98177083333333,0)" xlink:href="#ax"/><use transform="matrix(0.010850694444444444,0,0,0.010850694444444444,60.937499999999986,0)" xlink:href="#at"/></g><path d="M158 0v-1118h175l1 205c55-151 181-225 313-225 147 0 245 90 285 228 53-141 190-228 352-228 194 0 352 125 352 384V0h-181v-749c0-161-105-225-225-225-151 0-243 103-243 244V0H807v-767c0-124-93-207-219-207-131 0-250 92-250 270V0H158" id="aN"/><g id="j"><use transform="matrix(0.010850694444444444,0,0,0.010850694444444444,0,0)" xlink:href="#aw"/><use transform="matrix(0.010850694444444444,0,0,0.010850694444444444,11.729600694444445,0)" xlink:href="#aI"/><use transform="matrix(0.010850694444444444,0,0,0.010850694444444444,24.207899305555554,0)" xlink:href="#aN"/><use transform="matrix(0.010850694444444444,0,0,0.010850694444444444,43.674045138888886,0)" xlink:href="#ax"/></g><path d="M158 418v-1536h174v179h20c37-59 106-193 324-193 279 0 474 222 474 576 0 356-194 580-473 580-213 0-288-135-325-197h-14v591H158zm492-555c209 0 317-186 317-421 0-232-105-413-317-413-206 0-314 166-314 413 0 249 111 421 314 421" id="aO"/><g id="k"><use transform="matrix(0.010850694444444444,0,0,0.010850694444444444,0,0)" xlink:href="#aO"/><use transform="matrix(0.010850694444444444,0,0,0.010850694444444444,13.606770833333332,0)" xlink:href="#at"/><use transform="matrix(0.010850694444444444,0,0,0.010850694444444444,21.603732638888886,0)" xlink:href="#au"/><use transform="matrix(0.010850694444444444,0,0,0.010850694444444444,34.928385416666664,0)" xlink:href="#aJ"/><use transform="matrix(0.010850694444444444,0,0,0.010850694444444444,47.623697916666664,0)" xlink:href="#ax"/><use transform="matrix(0.010850694444444444,0,0,0.010850694444444444,60.57942708333333,0)" xlink:href="#aw"/><use transform="matrix(0.010850694444444444,0,0,0.010850694444444444,72.30902777777777,0)" xlink:href="#aw"/></g><path d="M180 0v-1490h510c348 0 508 209 508 474 0 266-160 477-507 477H370V0H180zm190-706h312c236 0 327-133 327-310 0-176-91-307-329-307H370v617" id="aP"/><path d="M611 442c-248 0-391-105-460-228l146-94c47 65 117 165 314 165 178 0 307-82 307-266v-224h-17C863-141 792-18 576-18c-268 0-472-195-472-546 0-346 197-568 476-568 216 0 288 133 326 193h17v-179h175V29c0 289-215 413-487 413zm-5-620c203 0 314-146 314-390 0-237-108-403-314-403-213 0-319 180-319 403 0 230 109 390 319 390" id="aQ"/><path d="M784 20c-382 0-662-292-662-764 0-473 280-766 662-766s660 293 660 766c0 282-99 499-260 629l192 255h-198L1049-33C969 2 880 20 784 20zm-62-486h198l156 205c112-98 183-261 183-483 0-383-209-590-475-590-268 0-477 208-477 590 0 380 209 588 477 588 54 0 106-9 154-25" id="aR"/><path d="M180 0v-1490h190v1322h690V0H180" id="aS"/><g id="l"><use transform="matrix(0.010850694444444444,0,0,0.010850694444444444,0,0)" xlink:href="#aP"/><use transform="matrix(0.010850694444444444,0,0,0.010850694444444444,14.073350694444445,0)" xlink:href="#au"/><use transform="matrix(0.010850694444444444,0,0,0.010850694444444444,27.39800347222222,0)" xlink:href="#aw"/><use transform="matrix(0.010850694444444444,0,0,0.010850694444444444,39.127604166666664,0)" xlink:href="#aB"/><use transform="matrix(0.010850694444444444,0,0,0.010850694444444444,46.18055555555556,0)" xlink:href="#aQ"/><use transform="matrix(0.010850694444444444,0,0,0.010850694444444444,59.80902777777778,0)" xlink:href="#at"/><use transform="matrix(0.010850694444444444,0,0,0.010850694444444444,67.80598958333333,0)" xlink:href="#ax"/><use transform="matrix(0.010850694444444444,0,0,0.010850694444444444,80.76171875,0)" xlink:href="#aL"/><use transform="matrix(0.010850694444444444,0,0,0.010850694444444444,95.01953125,0)" xlink:href="#aR"/><use transform="matrix(0.010850694444444444,0,0,0.010850694444444444,112.01171875,0)" xlink:href="#aS"/></g><path d="M338-1490V0H158v-1490h180" id="aT"/><g id="m"><use transform="matrix(0.010850694444444444,0,0,0.010850694444444444,0,0)" xlink:href="#aT"/><use transform="matrix(0.010850694444444444,0,0,0.010850694444444444,5.381944444444445,0)" xlink:href="#au"/><use transform="matrix(0.010850694444444444,0,0,0.010850694444444444,18.70659722222222,0)" xlink:href="#aJ"/><use transform="matrix(0.010850694444444444,0,0,0.010850694444444444,31.61892361111111,0)" xlink:href="#aI"/><use transform="matrix(0.010850694444444444,0,0,0.010850694444444444,44.09722222222222,0)" xlink:href="#aT"/></g><g id="n"><use transform="matrix(0.010850694444444444,0,0,0.010850694444444444,0,0)" xlink:href="#au"/><use transform="matrix(0.010850694444444444,0,0,0.010850694444444444,13.324652777777777,0)" xlink:href="#at"/></g><path d="M338-670V0H158v-1118h173l1 207c72-158 192-221 342-221 226 0 378 139 378 422V0H872v-695c0-172-96-275-252-275-161 0-282 109-282 300" id="aU"/><g id="o"><use transform="matrix(0.010850694444444444,0,0,0.010850694444444444,0,0)" xlink:href="#az"/><use transform="matrix(0.010850694444444444,0,0,0.010850694444444444,16.74262152777778,0)" xlink:href="#ax"/><use transform="matrix(0.010850694444444444,0,0,0.010850694444444444,29.698350694444443,0)" xlink:href="#au"/><use transform="matrix(0.010850694444444444,0,0,0.010850694444444444,43.02300347222222,0)" xlink:href="#aU"/></g><path fill="#28253d" d="M180 0v-1490h901v168H370v510h643v168H370V0H180" id="aV"/><path fill="#28253d" d="M613 24c-304 0-509-231-509-576 0-350 205-580 509-580 305 0 511 230 511 580 0 345-206 576-511 576zm0-161c226 0 329-195 329-415 0-222-103-419-329-419-223 0-326 196-326 419 0 220 103 415 326 415" id="aW"/><path fill="#28253d" d="M158 0v-1118h174v172h12c41-113 157-188 290-188 26 0 70 2 91 3v181c-11-2-60-10-108-10-161 0-279 109-279 260V0H158" id="aX"/><path fill="#28253d" d="M158 0v-1118h175l1 205c55-151 181-225 313-225 147 0 245 90 285 228 53-141 190-228 352-228 194 0 352 125 352 384V0h-181v-749c0-161-105-225-225-225-151 0-243 103-243 244V0H807v-767c0-124-93-207-219-207-131 0-250 92-250 270V0H158" id="aY"/><g id="p"><use transform="matrix(0.011393229166666666,0,0,0.011393229166666666,0,0)" xlink:href="#aV"/><use transform="matrix(0.011393229166666666,0,0,0.011393229166666666,12.8515625,0)" xlink:href="#aW"/><use transform="matrix(0.011393229166666666,0,0,0.011393229166666666,26.842447916666664,0)" xlink:href="#aX"/><use transform="matrix(0.011393229166666666,0,0,0.011393229166666666,35.9912109375,0)" xlink:href="#aY"/></g><path fill="#28253d" d="M593-100v-404H195v-159h398v-403h169v403h398v159H762v404H593" id="aZ"/><use transform="matrix(0.011393229166666666,0,0,0.011393229166666666,0,0)" xlink:href="#aZ" id="q"/><path fill="#28253d" d="M763 24c-353 0-583-224-583-531v-983h190v968c0 214 149 370 393 370 243 0 391-156 391-370v-968h190v983c0 307-230 531-581 531" id="ba"/><path fill="#28253d" d="M57 0l534-763-501-727h220c122 187 296 416 391 605 94-191 272-419 396-605h215L811-770 1340 0h-219C986-204 811-426 699-640 588-430 407-202 273 0H57" id="bb"/><g id="r"><use transform="matrix(0.011393229166666666,0,0,0.011393229166666666,0,0)" xlink:href="#ba"/><use transform="matrix(0.011393229166666666,0,0,0.011393229166666666,17.36328125,0)" xlink:href="#bb"/></g><path fill="#28253d" d="M338-1490V0H158v-1490h180" id="bc"/><path fill="#28253d" d="M158 0v-1118h180V0H158zm91-1301c-68 0-125-53-125-119s57-119 125-119c69 0 126 53 126 119s-57 119-126 119" id="bd"/><path fill="#28253d" d="M677 24c-213 0-288-135-325-197h-20V0H158v-1490h180v551h14c37-59 106-193 324-193 279 0 474 222 474 576 0 356-194 580-473 580zm-27-161c209 0 317-186 317-421 0-232-105-413-317-413-206 0-314 166-314 413 0 249 111 421 314 421" id="be"/><path fill="#28253d" d="M538 24C308 24 148-78 108-271l171-41c32 123 123 178 257 178 156 0 256-77 256-169 0-77-54-128-164-154l-186-44c-203-48-300-148-300-305 0-192 176-326 414-326 230 0 351 112 402 269l-163 42c-31-80-94-158-238-158-133 0-233 69-233 162 0 83 57 129 188 160l169 40c203 48 298 149 298 302 0 196-179 339-441 339" id="bf"/><g id="s"><use transform="matrix(0.011393229166666666,0,0,0.011393229166666666,0,0)" xlink:href="#bc"/><use transform="matrix(0.011393229166666666,0,0,0.011393229166666666,5.651041666666666,0)" xlink:href="#bd"/><use transform="matrix(0.011393229166666666,0,0,0.011393229166666666,11.302083333333332,0)" xlink:href="#be"/><use transform="matrix(0.011393229166666666,0,0,0.011393229166666666,25.589192708333332,0)" xlink:href="#bf"/></g><path fill="#28253d" d="M180 0v-1490h510c348 0 508 194 508 460 0 198-88 351-276 417L1256 0h-220L726-579c-117 2-238 0-356 1V0H180zm190-747h312c235 0 327-108 327-283 0-177-92-293-329-293H370v576" id="bg"/><path fill="#28253d" d="M180 0v-1490h190v644h782v-644h190V0h-190v-678H370V0H180" id="bh"/><g id="t"><use transform="matrix(0.011393229166666666,0,0,0.011393229166666666,0,0)" xlink:href="#bg"/><use transform="matrix(0.011393229166666666,0,0,0.011393229166666666,15.016276041666666,0)" xlink:href="#bh"/><use transform="matrix(0.011393229166666666,0,0,0.011393229166666666,32.35677083333333,0)" xlink:href="#aV"/></g><path fill="#28253d" d="M130 0v-134l666-991c45-67 96-135 147-202-269 9-546 3-821 5v-168h1036v136L502-379c-49 72-103 145-157 216 268-9 546-3 821-5V0H130" id="bi"/><path fill="#28253d" d="M577 24c-279 0-473-224-473-580 0-354 195-576 474-576 218 0 287 134 324 193h14v-551h180V0H922v-173h-20C865-111 790 24 577 24zm27-161c203 0 314-172 314-421 0-247-108-413-314-413-212 0-317 181-317 413 0 235 108 421 317 421" id="bj"/><g id="u"><use transform="matrix(0.011393229166666666,0,0,0.011393229166666666,0,0)" xlink:href="#bi"/><use transform="matrix(0.011393229166666666,0,0,0.011393229166666666,14.674479166666666,0)" xlink:href="#aW"/><use transform="matrix(0.011393229166666666,0,0,0.011393229166666666,28.665364583333332,0)" xlink:href="#bj"/></g><path fill="#28253d" d="M657 26c-323 0-524-166-541-416h195c15 169 171 246 346 246 202 0 356-106 356-265 5-203-294-238-475-293-239-73-380-191-380-389 0-252 224-419 512-419 294 0 499 171 508 396H992c-17-145-151-228-328-228-193 0-321 102-321 242 0 156 175 211 284 241l149 41c160 44 422 134 422 412 0 244-197 432-541 432" id="bk"/><path fill="#28253d" d="M338-670V0H158v-1118h173l1 207c72-158 192-221 342-221 226 0 378 139 378 422V0H872v-695c0-172-96-275-252-275-161 0-282 109-282 300" id="bl"/><path fill="#28253d" d="M628 24c-324 0-524-230-524-574 0-343 198-582 503-582 237 0 487 146 487 559v75H286c9 234 145 362 343 362 132 0 231-58 273-172l174 48C1024-91 857 24 628 24zM287-650h624c-17-190-120-322-304-322-192 0-309 151-320 322" id="bm"/><g id="v"><use transform="matrix(0.011393229166666666,0,0,0.011393229166666666,0,0)" xlink:href="#bk"/><use transform="matrix(0.011393229166666666,0,0,0.011393229166666666,14.970703125,0)" xlink:href="#aW"/><use transform="matrix(0.011393229166666666,0,0,0.011393229166666666,28.961588541666664,0)" xlink:href="#bl"/><use transform="matrix(0.011393229166666666,0,0,0.011393229166666666,42.74739583333333,0)" xlink:href="#bl"/><use transform="matrix(0.011393229166666666,0,0,0.011393229166666666,56.533203125,0)" xlink:href="#bm"/><use transform="matrix(0.011393229166666666,0,0,0.011393229166666666,70.13671875,0)" xlink:href="#aX"/></g><path fill="#28253d" d="M613 24c-304 0-509-231-509-576 0-350 205-580 509-580 216 0 392 114 453 309l-173 49c-33-115-133-197-280-197-223 0-326 196-326 419 0 220 103 415 326 415 150 0 252-85 285-206l172 49C1010-95 832 24 613 24" id="bn"/><path fill="#28253d" d="M338-670V0H158v-1490h180v566c73-149 190-208 336-208 226 0 379 139 379 422V0H872v-695c0-172-96-275-252-275-161 0-282 109-282 300" id="bo"/><path fill="#28253d" d="M471 26C259 26 90-98 90-318c0-256 228-303 435-329 202-27 287-16 287-108 0-139-79-219-234-219-161 0-248 86-283 164l-173-57c86-203 278-265 451-265 150 0 419 46 419 395V0H815v-152h-12C765-73 660 26 471 26zm31-159c199 0 310-134 310-271v-155c-30 35-226 55-295 64-131 17-246 59-246 186 0 116 97 176 231 176" id="bp"/><path fill="#28253d" d="M598-1118v154H368v674c0 100 37 144 132 144 23 0 62-6 92-12L629-6c-37 13-88 20-134 20-193 0-307-107-307-290v-688H20v-154h168v-266h180v266h230" id="bq"/><g id="w"><use transform="matrix(0.011393229166666666,0,0,0.011393229166666666,0,0)" xlink:href="#bg"/><use transform="matrix(0.011393229166666666,0,0,0.011393229166666666,14.674479166666666,0)" xlink:href="#bm"/><use transform="matrix(0.011393229166666666,0,0,0.011393229166666666,28.277994791666664,0)" xlink:href="#bn"/><use transform="matrix(0.011393229166666666,0,0,0.011393229166666666,41.608072916666664,0)" xlink:href="#bo"/><use transform="matrix(0.011393229166666666,0,0,0.011393229166666666,55.4052734375,0)" xlink:href="#bp"/><use transform="matrix(0.011393229166666666,0,0,0.011393229166666666,68.50748697916667,0)" xlink:href="#aX"/><use transform="matrix(0.011393229166666666,0,0,0.011393229166666666,77.65625,0)" xlink:href="#bq"/><use transform="matrix(0.011393229166666666,0,0,0.011393229166666666,85.06184895833334,0)" xlink:href="#bf"/></g><path fill="#28253d" d="M52 0l541-1490h220L1361 0h-200l-149-416H398L254 0H52zm404-582h497c-103-290-145-390-251-756-108 377-145 460-246 756" id="br"/><path fill="#28253d" d="M158 418v-1536h174v179h20c37-59 106-193 324-193 279 0 474 222 474 576 0 356-194 580-473 580-213 0-288-135-325-197h-14v591H158zm492-555c209 0 317-186 317-421 0-232-105-413-317-413-206 0-314 166-314 413 0 249 111 421 314 421" id="bs"/><g id="x"><use transform="matrix(0.011393229166666666,0,0,0.011393229166666666,0,0)" xlink:href="#br"/><use transform="matrix(0.011393229166666666,0,0,0.011393229166666666,16.0986328125,0)" xlink:href="#bs"/><use transform="matrix(0.011393229166666666,0,0,0.011393229166666666,30.3857421875,0)" xlink:href="#bs"/></g><path fill="#28253d" d="M537 14c-226 0-379-139-379-422v-710h180v695c0 172 97 275 253 275 160 0 281-109 281-300v-670h181V0H879v-209C806-46 684 14 537 14" id="bt"/><g id="y"><use transform="matrix(0.011393229166666666,0,0,0.011393229166666666,0,0)" xlink:href="#bg"/><use transform="matrix(0.011393229166666666,0,0,0.011393229166666666,14.674479166666666,0)" xlink:href="#aW"/><use transform="matrix(0.011393229166666666,0,0,0.011393229166666666,28.665364583333332,0)" xlink:href="#bt"/><use transform="matrix(0.011393229166666666,0,0,0.011393229166666666,42.462565104166664,0)" xlink:href="#bq"/><use transform="matrix(0.011393229166666666,0,0,0.011393229166666666,49.8681640625,0)" xlink:href="#bm"/><use transform="matrix(0.011393229166666666,0,0,0.011393229166666666,63.4716796875,0)" xlink:href="#aX"/></g><path fill="#28253d" d="M180 0v-1490h510c348 0 508 209 508 474 0 266-160 477-507 477H370V0H180zm190-706h312c236 0 327-133 327-310 0-176-91-307-329-307H370v617" id="bu"/><path fill="#28253d" d="M611 442c-248 0-391-105-460-228l146-94c47 65 117 165 314 165 178 0 307-82 307-266v-224h-17C863-141 792-18 576-18c-268 0-472-195-472-546 0-346 197-568 476-568 216 0 288 133 326 193h17v-179h175V29c0 289-215 413-487 413zm-5-620c203 0 314-146 314-390 0-237-108-403-314-403-213 0-319 180-319 403 0 230 109 390 319 390" id="bv"/><g id="z"><use transform="matrix(0.011393229166666666,0,0,0.011393229166666666,0,0)" xlink:href="#bu"/><use transform="matrix(0.011393229166666666,0,0,0.011393229166666666,14.90234375,0)" xlink:href="#bp"/><use transform="matrix(0.011393229166666666,0,0,0.011393229166666666,28.004557291666664,0)" xlink:href="#bv"/><use transform="matrix(0.011393229166666666,0,0,0.011393229166666666,42.314453125,0)" xlink:href="#bm"/><use transform="matrix(0.011393229166666666,0,0,0.011393229166666666,55.91796875,0)" xlink:href="#bf"/></g><path fill="#28253d" d="M218-607c0-325 108-727 258-974h175c-155 315-250 682-250 974 0 265 78 531 250 886H476C306-10 218-315 218-607" id="bw"/><path fill="#28253d" d="M783 20c-382 0-661-292-661-764 0-473 279-766 661-766 302 0 548 182 601 489h-190c-42-204-217-313-411-313-268 0-476 208-476 590 0 381 209 588 476 588 195 0 369-110 411-313h190c-52 303-296 489-601 489" id="bx"/><path fill="#28253d" d="M96 279C273-86 346-350 346-607c0-292-95-659-250-974h175c150 246 258 650 258 974 0 297-91 602-258 886H96" id="by"/><g id="A"><use transform="matrix(0.011393229166666666,0,0,0.011393229166666666,0,0)" xlink:href="#bw"/><use transform="matrix(0.011393229166666666,0,0,0.011393229166666666,8.5107421875,0)" xlink:href="#bg"/><use transform="matrix(0.011393229166666666,0,0,0.011393229166666666,23.527018229166664,0)" xlink:href="#bk"/><use transform="matrix(0.011393229166666666,0,0,0.011393229166666666,38.497721354166664,0)" xlink:href="#bx"/><use transform="matrix(0.011393229166666666,0,0,0.011393229166666666,55.5419921875,0)" xlink:href="#by"/></g><path fill="#28253d" d="M692-1560L212 224H46l480-1784h166" id="bz"/><g id="B"><use transform="matrix(0.011393229166666666,0,0,0.011393229166666666,0,0)" xlink:href="#bz"/><use transform="matrix(0.011393229166666666,0,0,0.011393229166666666,8.408203125,0)" xlink:href="#bp"/><use transform="matrix(0.011393229166666666,0,0,0.011393229166666666,21.510416666666664,0)" xlink:href="#bt"/><use transform="matrix(0.011393229166666666,0,0,0.011393229166666666,35.3076171875,0)" xlink:href="#bq"/><use transform="matrix(0.011393229166666666,0,0,0.011393229166666666,42.941080729166664,0)" xlink:href="#bo"/></g><path fill="#28253d" d="M295-573c-75 0-135-60-135-135s60-135 135-135 135 60 135 135-60 135-135 135" id="bA"/><use transform="matrix(0.011393229166666666,0,0,0.011393229166666666,0,0)" xlink:href="#bA" id="C"/><g id="D"><use transform="matrix(0.011393229166666666,0,0,0.011393229166666666,0,0)" xlink:href="#bz"/><use transform="matrix(0.011393229166666666,0,0,0.011393229166666666,8.408203125,0)" xlink:href="#bp"/><use transform="matrix(0.011393229166666666,0,0,0.011393229166666666,21.510416666666664,0)" xlink:href="#bs"/><use transform="matrix(0.011393229166666666,0,0,0.011393229166666666,35.797526041666664,0)" xlink:href="#bs"/></g><g id="E"><use transform="matrix(0.011393229166666666,0,0,0.011393229166666666,0,0)" xlink:href="#bz"/><use transform="matrix(0.011393229166666666,0,0,0.011393229166666666,8.408203125,0)" xlink:href="#bf"/><use transform="matrix(0.011393229166666666,0,0,0.011393229166666666,20.724283854166664,0)" xlink:href="#bo"/><use transform="matrix(0.011393229166666666,0,0,0.011393229166666666,34.521484375,0)" xlink:href="#bp"/><use transform="matrix(0.011393229166666666,0,0,0.011393229166666666,47.623697916666664,0)" xlink:href="#aX"/><use transform="matrix(0.011393229166666666,0,0,0.011393229166666666,56.0205078125,0)" xlink:href="#bm"/></g><g id="F"><use transform="matrix(0.011393229166666666,0,0,0.011393229166666666,0,0)" xlink:href="#bx"/><use transform="matrix(0.011393229166666666,0,0,0.011393229166666666,17.044270833333332,0)" xlink:href="#bc"/><use transform="matrix(0.011393229166666666,0,0,0.011393229166666666,22.6953125,0)" xlink:href="#bd"/><use transform="matrix(0.011393229166666666,0,0,0.011393229166666666,28.346354166666664,0)" xlink:href="#bm"/><use transform="matrix(0.011393229166666666,0,0,0.011393229166666666,41.949869791666664,0)" xlink:href="#bl"/><use transform="matrix(0.011393229166666666,0,0,0.011393229166666666,55.73567708333333,0)" xlink:href="#bq"/></g><g id="G"><use transform="matrix(0.011393229166666666,0,0,0.011393229166666666,0,0)" xlink:href="#bx"/><use transform="matrix(0.011393229166666666,0,0,0.011393229166666666,17.044270833333332,0)" xlink:href="#aW"/><use transform="matrix(0.011393229166666666,0,0,0.011393229166666666,31.03515625,0)" xlink:href="#aY"/><use transform="matrix(0.011393229166666666,0,0,0.011393229166666666,51.474609375,0)" xlink:href="#bs"/><use transform="matrix(0.011393229166666666,0,0,0.011393229166666666,65.76171875,0)" xlink:href="#aW"/><use transform="matrix(0.011393229166666666,0,0,0.011393229166666666,79.75260416666667,0)" xlink:href="#bl"/><use transform="matrix(0.011393229166666666,0,0,0.011393229166666666,93.53841145833334,0)" xlink:href="#bm"/><use transform="matrix(0.011393229166666666,0,0,0.011393229166666666,107.14192708333334,0)" xlink:href="#bl"/><use transform="matrix(0.011393229166666666,0,0,0.011393229166666666,120.92773437500001,0)" xlink:href="#bq"/><use transform="matrix(0.011393229166666666,0,0,0.011393229166666666,128.33333333333334,0)" xlink:href="#bf"/></g><path fill="#28253d" d="M180 0v-1490h224l606 953c40 63 108 177 176 312-27-437-7-821-13-1265h190V0h-226C860-448 622-778 356-1262c27 476 11 792 15 1262H180" id="bB"/><path fill="#28253d" d="M481 0L54-1118h197c107 314 236 620 325 951 87-331 217-637 324-951h197L670 0H481" id="bC"/><g id="H"><use transform="matrix(0.011393229166666666,0,0,0.011393229166666666,0,0)" xlink:href="#bB"/><use transform="matrix(0.011393229166666666,0,0,0.011393229166666666,17.579752604166664,0)" xlink:href="#bp"/><use transform="matrix(0.011393229166666666,0,0,0.011393229166666666,30.340169270833325,0)" xlink:href="#bC"/><use transform="matrix(0.011393229166666666,0,0,0.011393229166666666,43.56770833333333,0)" xlink:href="#be"/><use transform="matrix(0.011393229166666666,0,0,0.011393229166666666,58.082682291666664,0)" xlink:href="#bp"/><use transform="matrix(0.011393229166666666,0,0,0.011393229166666666,71.18489583333333,0)" xlink:href="#aX"/></g><g id="I"><use transform="matrix(0.011393229166666666,0,0,0.011393229166666666,0,0)" xlink:href="#bj"/><use transform="matrix(0.011393229166666666,0,0,0.011393229166666666,14.287109375,0)" xlink:href="#bd"/><use transform="matrix(0.011393229166666666,0,0,0.011393229166666666,19.938151041666664,0)" xlink:href="#bp"/><use transform="matrix(0.011393229166666666,0,0,0.011393229166666666,33.04036458333333,0)" xlink:href="#bc"/><use transform="matrix(0.011393229166666666,0,0,0.011393229166666666,38.69140624999999,0)" xlink:href="#aW"/><use transform="matrix(0.011393229166666666,0,0,0.011393229166666666,52.68229166666665,0)" xlink:href="#bv"/><use transform="matrix(0.011393229166666666,0,0,0.011393229166666666,66.99218749999999,0)" xlink:href="#bf"/></g><g id="J"><use transform="matrix(0.011393229166666666,0,0,0.011393229166666666,0,0)" xlink:href="#bn"/><use transform="matrix(0.011393229166666666,0,0,0.011393229166666666,13.330078125,0)" xlink:href="#bo"/><use transform="matrix(0.011393229166666666,0,0,0.011393229166666666,27.127278645833332,0)" xlink:href="#bp"/><use transform="matrix(0.011393229166666666,0,0,0.011393229166666666,40.2294921875,0)" xlink:href="#aX"/><use transform="matrix(0.011393229166666666,0,0,0.011393229166666666,49.37825520833333,0)" xlink:href="#bq"/><use transform="matrix(0.011393229166666666,0,0,0.011393229166666666,56.783854166666664,0)" xlink:href="#bf"/></g><path fill="#28253d" d="M678-1118v154H420V0H240v-964H20v-154h220v-149c0-194 155-293 318-293 85 0 141 18 168 30l-50 154c-19-6-47-17-97-17-111 0-159 58-159 166v109h258" id="bD"/><g id="K"><use transform="matrix(0.011393229166666666,0,0,0.011393229166666666,0,0)" xlink:href="#bD"/><use transform="matrix(0.011393229166666666,0,0,0.011393229166666666,7.952473958333331,0)" xlink:href="#aW"/><use transform="matrix(0.011393229166666666,0,0,0.011393229166666666,21.943359375,0)" xlink:href="#aX"/><use transform="matrix(0.011393229166666666,0,0,0.011393229166666666,31.092122395833332,0)" xlink:href="#aY"/><use transform="matrix(0.011393229166666666,0,0,0.011393229166666666,51.53157552083333,0)" xlink:href="#bf"/></g><g id="L"><use transform="matrix(0.011393229166666666,0,0,0.011393229166666666,0,0)" xlink:href="#bk"/><use transform="matrix(0.011393229166666666,0,0,0.011393229166666666,14.970703125,0)" xlink:href="#bm"/><use transform="matrix(0.011393229166666666,0,0,0.011393229166666666,28.57421875,0)" xlink:href="#aX"/><use transform="matrix(0.011393229166666666,0,0,0.011393229166666666,37.72298177083333,0)" xlink:href="#bC"/><use transform="matrix(0.011393229166666666,0,0,0.011393229166666666,50.380859375,0)" xlink:href="#bm"/><use transform="matrix(0.011393229166666666,0,0,0.011393229166666666,63.984375,0)" xlink:href="#aX"/></g><g id="M"><use transform="matrix(0.011393229166666666,0,0,0.011393229166666666,0,0)" xlink:href="#br"/><use transform="matrix(0.011393229166666666,0,0,0.011393229166666666,16.0986328125,0)" xlink:href="#bn"/><use transform="matrix(0.011393229166666666,0,0,0.011393229166666666,29.4287109375,0)" xlink:href="#bq"/><use transform="matrix(0.011393229166666666,0,0,0.011393229166666666,37.062174479166664,0)" xlink:href="#bd"/><use transform="matrix(0.011393229166666666,0,0,0.011393229166666666,42.71321614583333,0)" xlink:href="#aW"/><use transform="matrix(0.011393229166666666,0,0,0.011393229166666666,56.7041015625,0)" xlink:href="#bl"/><use transform="matrix(0.011393229166666666,0,0,0.011393229166666666,70.48990885416666,0)" xlink:href="#bf"/></g><path fill="#28253d" d="M441-652l13-317-268 171-72-126 282-146-282-146 72-128 268 171-13-317h144l-12 317 267-171 72 128-282 146 282 146-72 126-267-171 12 317H441" id="bE"/><g id="N"><use transform="matrix(0.011393229166666666,0,0,0.011393229166666666,0,0)" xlink:href="#bf"/><use transform="matrix(0.011393229166666666,0,0,0.011393229166666666,12.316080729166666,0)" xlink:href="#aX"/><use transform="matrix(0.011393229166666666,0,0,0.011393229166666666,20.712890625,0)" xlink:href="#bn"/><use transform="matrix(0.011393229166666666,0,0,0.011393229166666666,34.04296875,0)" xlink:href="#bz"/><use transform="matrix(0.011393229166666666,0,0,0.011393229166666666,42.451171875,0)" xlink:href="#bf"/><use transform="matrix(0.011393229166666666,0,0,0.011393229166666666,54.767252604166664,0)" xlink:href="#bm"/><use transform="matrix(0.011393229166666666,0,0,0.011393229166666666,68.37076822916666,0)" xlink:href="#aX"/><use transform="matrix(0.011393229166666666,0,0,0.011393229166666666,77.51953124999999,0)" xlink:href="#bC"/><use transform="matrix(0.011393229166666666,0,0,0.011393229166666666,90.17740885416664,0)" xlink:href="#bm"/><use transform="matrix(0.011393229166666666,0,0,0.011393229166666666,103.78092447916664,0)" xlink:href="#aX"/><use transform="matrix(0.011393229166666666,0,0,0.011393229166666666,111.77897135416664,0)" xlink:href="#bz"/><use transform="matrix(0.011393229166666666,0,0,0.011393229166666666,120.18717447916664,0)" xlink:href="#bp"/><use transform="matrix(0.011393229166666666,0,0,0.011393229166666666,133.28938802083331,0)" xlink:href="#bn"/><use transform="matrix(0.011393229166666666,0,0,0.011393229166666666,146.61946614583331,0)" xlink:href="#bq"/><use transform="matrix(0.011393229166666666,0,0,0.011393229166666666,154.25292968749997,0)" xlink:href="#bd"/><use transform="matrix(0.011393229166666666,0,0,0.011393229166666666,159.90397135416663,0)" xlink:href="#aW"/><use transform="matrix(0.011393229166666666,0,0,0.011393229166666666,173.8948567708333,0)" xlink:href="#bl"/><use transform="matrix(0.011393229166666666,0,0,0.011393229166666666,187.68066406249994,0)" xlink:href="#bf"/><use transform="matrix(0.011393229166666666,0,0,0.011393229166666666,199.99674479166663,0)" xlink:href="#bz"/><use transform="matrix(0.011393229166666666,0,0,0.011393229166666666,208.40494791666663,0)" xlink:href="#bE"/></g><g id="O"><use transform="matrix(0.011393229166666666,0,0,0.011393229166666666,0,0)" xlink:href="#br"/><use transform="matrix(0.011393229166666666,0,0,0.011393229166666666,16.0986328125,0)" xlink:href="#bt"/><use transform="matrix(0.011393229166666666,0,0,0.011393229166666666,29.895833333333332,0)" xlink:href="#bq"/><use transform="matrix(0.011393229166666666,0,0,0.011393229166666666,37.529296875,0)" xlink:href="#bo"/></g><path fill="#28253d" d="M180 0v-1490h190v1322h690V0H180" id="bF"/><path fill="#28253d" d="M140 405l46-156c120 36 205 19 263-150l32-93L54-1118h197c107 313 237 620 324 950 87-331 219-637 326-950h196L606 167c-68 178-176 259-334 259-64 0-113-12-132-21" id="bG"/><g id="P"><use transform="matrix(0.011393229166666666,0,0,0.011393229166666666,0,0)" xlink:href="#bF"/><use transform="matrix(0.011393229166666666,0,0,0.011393229166666666,13.193359375,0)" xlink:href="#bp"/><use transform="matrix(0.011393229166666666,0,0,0.011393229166666666,25.953776041666664,0)" xlink:href="#bG"/><use transform="matrix(0.011393229166666666,0,0,0.011393229166666666,38.61165364583333,0)" xlink:href="#bm"/><use transform="matrix(0.011393229166666666,0,0,0.011393229166666666,52.21516927083333,0)" xlink:href="#aX"/></g><path fill="#28253d" d="M295 13c-75 0-135-60-135-135s60-135 135-135 135 60 135 135S370 13 295 13" id="bH"/><g id="Q"><use transform="matrix(0.011393229166666666,0,0,0.011393229166666666,0,0)" xlink:href="#bf"/><use transform="matrix(0.011393229166666666,0,0,0.011393229166666666,12.316080729166666,0)" xlink:href="#aX"/><use transform="matrix(0.011393229166666666,0,0,0.011393229166666666,20.712890625,0)" xlink:href="#bn"/><use transform="matrix(0.011393229166666666,0,0,0.011393229166666666,34.04296875,0)" xlink:href="#bz"/><use transform="matrix(0.011393229166666666,0,0,0.011393229166666666,42.451171875,0)" xlink:href="#bc"/><use transform="matrix(0.011393229166666666,0,0,0.011393229166666666,48.102213541666664,0)" xlink:href="#bd"/><use transform="matrix(0.011393229166666666,0,0,0.011393229166666666,53.75325520833333,0)" xlink:href="#be"/><use transform="matrix(0.011393229166666666,0,0,0.011393229166666666,68.04036458333333,0)" xlink:href="#bz"/><use transform="matrix(0.011393229166666666,0,0,0.011393229166666666,76.44856770833333,0)" xlink:href="#bp"/><use transform="matrix(0.011393229166666666,0,0,0.011393229166666666,89.55078125,0)" xlink:href="#bt"/><use transform="matrix(0.011393229166666666,0,0,0.011393229166666666,103.34798177083333,0)" xlink:href="#bq"/><use transform="matrix(0.011393229166666666,0,0,0.011393229166666666,110.9814453125,0)" xlink:href="#bo"/><use transform="matrix(0.011393229166666666,0,0,0.011393229166666666,124.77864583333333,0)" xlink:href="#bH"/><use transform="matrix(0.011393229166666666,0,0,0.011393229166666666,131.50065104166666,0)" xlink:href="#bq"/><use transform="matrix(0.011393229166666666,0,0,0.011393229166666666,138.90624999999997,0)" xlink:href="#bf"/></g><path fill="#28253d" d="M157-1118h181V80c1 225-123 350-364 338V252c126 9 184-48 183-172v-1198zm91-183c-68 0-125-53-125-119s57-119 125-119c69 0 126 53 126 119s-57 119-126 119" id="bI"/><g id="R"><use transform="matrix(0.011393229166666666,0,0,0.011393229166666666,0,0)" xlink:href="#br"/><use transform="matrix(0.011393229166666666,0,0,0.011393229166666666,16.0986328125,0)" xlink:href="#bt"/><use transform="matrix(0.011393229166666666,0,0,0.011393229166666666,29.895833333333332,0)" xlink:href="#bq"/><use transform="matrix(0.011393229166666666,0,0,0.011393229166666666,37.529296875,0)" xlink:href="#bo"/><use transform="matrix(0.011393229166666666,0,0,0.011393229166666666,51.32649739583333,0)" xlink:href="#bH"/><use transform="matrix(0.011393229166666666,0,0,0.011393229166666666,58.048502604166664,0)" xlink:href="#bI"/><use transform="matrix(0.011393229166666666,0,0,0.011393229166666666,63.69954427083333,0)" xlink:href="#bf"/></g><path fill="#28253d" d="M626 20c-262 0-458-168-468-396h184c12 133 134 229 284 229 180 0 311-137 311-326 0-192-136-335-323-335-92 0-196 33-255 78l-178-22 88-738h784v167H429l-51 435h8c61-51 160-87 263-87 273 0 474 211 474 499 0 286-210 496-497 496" id="bJ"/><g id="S"><use transform="matrix(0.011393229166666666,0,0,0.011393229166666666,0,0)" xlink:href="#bC"/><use transform="matrix(0.011393229166666666,0,0,0.011393229166666666,13.113606770833332,0)" xlink:href="#bJ"/></g><path fill="#28253d" d="M600 0L52-1490h200c166 485 304 806 458 1336 156-533 285-846 449-1336h202L819 0H600" id="bK"/><g id="T"><use transform="matrix(0.011393229166666666,0,0,0.011393229166666666,0,0)" xlink:href="#bK"/><use transform="matrix(0.011393229166666666,0,0,0.011393229166666666,14.913736979166666,0)" xlink:href="#bp"/><use transform="matrix(0.011393229166666666,0,0,0.011393229166666666,28.015950520833332,0)" xlink:href="#bc"/><use transform="matrix(0.011393229166666666,0,0,0.011393229166666666,33.6669921875,0)" xlink:href="#bd"/><use transform="matrix(0.011393229166666666,0,0,0.011393229166666666,39.318033854166664,0)" xlink:href="#bj"/><use transform="matrix(0.011393229166666666,0,0,0.011393229166666666,53.605143229166664,0)" xlink:href="#bp"/><use transform="matrix(0.011393229166666666,0,0,0.011393229166666666,66.70735677083333,0)" xlink:href="#bq"/><use transform="matrix(0.011393229166666666,0,0,0.011393229166666666,74.3408203125,0)" xlink:href="#bd"/><use transform="matrix(0.011393229166666666,0,0,0.011393229166666666,79.99186197916667,0)" xlink:href="#aW"/><use transform="matrix(0.011393229166666666,0,0,0.011393229166666666,93.98274739583334,0)" xlink:href="#bl"/></g><g id="U"><use transform="matrix(0.011393229166666666,0,0,0.011393229166666666,0,0)" xlink:href="#ba"/><use transform="matrix(0.011393229166666666,0,0,0.011393229166666666,17.36328125,0)" xlink:href="#bq"/><use transform="matrix(0.011393229166666666,0,0,0.011393229166666666,24.996744791666664,0)" xlink:href="#bd"/><use transform="matrix(0.011393229166666666,0,0,0.011393229166666666,30.647786458333325,0)" xlink:href="#bc"/><use transform="matrix(0.011393229166666666,0,0,0.011393229166666666,36.29882812499999,0)" xlink:href="#bf"/></g><g id="V"><use transform="matrix(0.011393229166666666,0,0,0.011393229166666666,0,0)" xlink:href="#bC"/><use transform="matrix(0.011393229166666666,0,0,0.011393229166666666,12.999674479166666,0)" xlink:href="#bp"/><use transform="matrix(0.011393229166666666,0,0,0.011393229166666666,26.101888020833332,0)" xlink:href="#bc"/><use transform="matrix(0.011393229166666666,0,0,0.011393229166666666,31.7529296875,0)" xlink:href="#bd"/><use transform="matrix(0.011393229166666666,0,0,0.011393229166666666,37.403971354166664,0)" xlink:href="#bj"/><use transform="matrix(0.011393229166666666,0,0,0.011393229166666666,51.691080729166664,0)" xlink:href="#bp"/><use transform="matrix(0.011393229166666666,0,0,0.011393229166666666,64.79329427083333,0)" xlink:href="#bq"/><use transform="matrix(0.011393229166666666,0,0,0.011393229166666666,72.4267578125,0)" xlink:href="#bd"/><use transform="matrix(0.011393229166666666,0,0,0.011393229166666666,78.07779947916667,0)" xlink:href="#aW"/><use transform="matrix(0.011393229166666666,0,0,0.011393229166666666,92.06868489583334,0)" xlink:href="#bl"/><use transform="matrix(0.011393229166666666,0,0,0.011393229166666666,105.85449218750001,0)" xlink:href="#bf"/><use transform="matrix(0.011393229166666666,0,0,0.011393229166666666,118.17057291666669,0)" xlink:href="#bz"/><use transform="matrix(0.011393229166666666,0,0,0.011393229166666666,126.57877604166669,0)" xlink:href="#bE"/></g><g id="W"><use transform="matrix(0.011393229166666666,0,0,0.011393229166666666,0,0)" xlink:href="#bf"/><use transform="matrix(0.011393229166666666,0,0,0.011393229166666666,12.316080729166666,0)" xlink:href="#bp"/><use transform="matrix(0.011393229166666666,0,0,0.011393229166666666,25.418294270833332,0)" xlink:href="#bD"/><use transform="matrix(0.011393229166666666,0,0,0.011393229166666666,33.370768229166664,0)" xlink:href="#bm"/><use transform="matrix(0.011393229166666666,0,0,0.011393229166666666,46.188151041666664,0)" xlink:href="#br"/><use transform="matrix(0.011393229166666666,0,0,0.011393229166666666,62.286783854166664,0)" xlink:href="#bn"/><use transform="matrix(0.011393229166666666,0,0,0.011393229166666666,75.61686197916666,0)" xlink:href="#bq"/><use transform="matrix(0.011393229166666666,0,0,0.011393229166666666,83.25032552083333,0)" xlink:href="#bd"/><use transform="matrix(0.011393229166666666,0,0,0.011393229166666666,88.9013671875,0)" xlink:href="#aW"/><use transform="matrix(0.011393229166666666,0,0,0.011393229166666666,102.89225260416666,0)" xlink:href="#bl"/><use transform="matrix(0.011393229166666666,0,0,0.011393229166666666,116.67805989583334,0)" xlink:href="#bw"/><use transform="matrix(0.011393229166666666,0,0,0.011393229166666666,125.18880208333334,0)" xlink:href="#by"/></g><g id="X"><use transform="matrix(0.011393229166666666,0,0,0.011393229166666666,0,0)" xlink:href="#bg"/><use transform="matrix(0.011393229166666666,0,0,0.011393229166666666,14.674479166666666,0)" xlink:href="#aW"/><use transform="matrix(0.011393229166666666,0,0,0.011393229166666666,28.665364583333332,0)" xlink:href="#bt"/><use transform="matrix(0.011393229166666666,0,0,0.011393229166666666,42.462565104166664,0)" xlink:href="#bq"/><use transform="matrix(0.011393229166666666,0,0,0.011393229166666666,49.8681640625,0)" xlink:href="#bm"/></g><g id="Y"><use transform="matrix(0.011393229166666666,0,0,0.011393229166666666,0,0)" xlink:href="#bh"/><use transform="matrix(0.011393229166666666,0,0,0.011393229166666666,17.340494791666664,0)" xlink:href="#bp"/><use transform="matrix(0.011393229166666666,0,0,0.011393229166666666,30.442708333333325,0)" xlink:href="#bl"/><use transform="matrix(0.011393229166666666,0,0,0.011393229166666666,44.22851562499999,0)" xlink:href="#bj"/><use transform="matrix(0.011393229166666666,0,0,0.011393229166666666,58.515625,0)" xlink:href="#bc"/><use transform="matrix(0.011393229166666666,0,0,0.011393229166666666,64.16666666666666,0)" xlink:href="#bm"/><use transform="matrix(0.011393229166666666,0,0,0.011393229166666666,77.77018229166666,0)" xlink:href="#aX"/><use transform="matrix(0.011393229166666666,0,0,0.011393229166666666,86.55436197916666,0)" xlink:href="#bf"/></g><g id="Z"><use transform="matrix(0.011393229166666666,0,0,0.011393229166666666,0,0)" xlink:href="#bf"/><use transform="matrix(0.011393229166666666,0,0,0.011393229166666666,12.316080729166666,0)" xlink:href="#aX"/><use transform="matrix(0.011393229166666666,0,0,0.011393229166666666,20.712890625,0)" xlink:href="#bn"/><use transform="matrix(0.011393229166666666,0,0,0.011393229166666666,34.04296875,0)" xlink:href="#bz"/><use transform="matrix(0.011393229166666666,0,0,0.011393229166666666,42.451171875,0)" xlink:href="#bp"/><use transform="matrix(0.011393229166666666,0,0,0.011393229166666666,55.553385416666664,0)" xlink:href="#bs"/><use transform="matrix(0.011393229166666666,0,0,0.011393229166666666,69.84049479166666,0)" xlink:href="#bs"/><use transform="matrix(0.011393229166666666,0,0,0.011393229166666666,84.12760416666666,0)" xlink:href="#bz"/><use transform="matrix(0.011393229166666666,0,0,0.011393229166666666,92.53580729166666,0)" xlink:href="#bp"/><use transform="matrix(0.011393229166666666,0,0,0.011393229166666666,105.63802083333333,0)" xlink:href="#bs"/><use transform="matrix(0.011393229166666666,0,0,0.011393229166666666,119.92513020833333,0)" xlink:href="#bd"/><use transform="matrix(0.011393229166666666,0,0,0.011393229166666666,125.576171875,0)" xlink:href="#bz"/><use transform="matrix(0.011393229166666666,0,0,0.011393229166666666,133.984375,0)" xlink:href="#bE"/></g><g id="aa"><use transform="matrix(0.011393229166666666,0,0,0.011393229166666666,0,0)" xlink:href="#bx"/><use transform="matrix(0.011393229166666666,0,0,0.011393229166666666,17.044270833333332,0)" xlink:href="#aW"/><use transform="matrix(0.011393229166666666,0,0,0.011393229166666666,31.03515625,0)" xlink:href="#aX"/><use transform="matrix(0.011393229166666666,0,0,0.011393229166666666,39.43196614583333,0)" xlink:href="#bm"/></g><path fill="#28253d" d="M98-1322v-168h1126v168H757V0H567v-1322H98" id="bL"/><g id="ab"><use transform="matrix(0.011393229166666666,0,0,0.011393229166666666,0,0)" xlink:href="#bL"/><use transform="matrix(0.011393229166666666,0,0,0.011393229166666666,13.352864583333332,0)" xlink:href="#bp"/><use transform="matrix(0.011393229166666666,0,0,0.011393229166666666,26.455078125,0)" xlink:href="#be"/><use transform="matrix(0.011393229166666666,0,0,0.011393229166666666,40.7421875,0)" xlink:href="#bc"/><use transform="matrix(0.011393229166666666,0,0,0.011393229166666666,46.393229166666664,0)" xlink:href="#bm"/><use transform="matrix(0.011393229166666666,0,0,0.011393229166666666,59.996744791666664,0)" xlink:href="#bf"/></g><g id="ac"><use transform="matrix(0.011393229166666666,0,0,0.011393229166666666,0,0)" xlink:href="#ba"/><use transform="matrix(0.011393229166666666,0,0,0.011393229166666666,17.36328125,0)" xlink:href="#bf"/><use transform="matrix(0.011393229166666666,0,0,0.011393229166666666,29.679361979166664,0)" xlink:href="#bm"/><use transform="matrix(0.011393229166666666,0,0,0.011393229166666666,43.282877604166664,0)" xlink:href="#aX"/></g><g id="ad"><use transform="matrix(0.011393229166666666,0,0,0.011393229166666666,0,0)" xlink:href="#bL"/><use transform="matrix(0.011393229166666666,0,0,0.011393229166666666,13.740234375,0)" xlink:href="#aX"/><use transform="matrix(0.011393229166666666,0,0,0.011393229166666666,22.888997395833332,0)" xlink:href="#bd"/><use transform="matrix(0.011393229166666666,0,0,0.011393229166666666,28.5400390625,0)" xlink:href="#bs"/></g><g id="ae"><use transform="matrix(0.011393229166666666,0,0,0.011393229166666666,0,0)" xlink:href="#bk"/><use transform="matrix(0.011393229166666666,0,0,0.011393229166666666,14.970703125,0)" xlink:href="#bq"/><use transform="matrix(0.011393229166666666,0,0,0.011393229166666666,22.376302083333332,0)" xlink:href="#aW"/><use transform="matrix(0.011393229166666666,0,0,0.011393229166666666,36.3671875,0)" xlink:href="#bs"/></g><g id="af"><use transform="matrix(0.011393229166666666,0,0,0.011393229166666666,0,0)" xlink:href="#bx"/><use transform="matrix(0.011393229166666666,0,0,0.011393229166666666,17.044270833333332,0)" xlink:href="#bd"/><use transform="matrix(0.011393229166666666,0,0,0.011393229166666666,22.6953125,0)" xlink:href="#bq"/><use transform="matrix(0.011393229166666666,0,0,0.011393229166666666,30.784505208333336,0)" xlink:href="#bG"/></g><use transform="matrix(0.011393229166666666,0,0,0.011393229166666666,0,0)" xlink:href="#bA" id="ag"/><g id="ah"><use transform="matrix(0.011393229166666666,0,0,0.011393229166666666,0,0)" xlink:href="#br"/><use transform="matrix(0.011393229166666666,0,0,0.011393229166666666,16.0986328125,0)" xlink:href="#bn"/><use transform="matrix(0.011393229166666666,0,0,0.011393229166666666,29.4287109375,0)" xlink:href="#bq"/><use transform="matrix(0.011393229166666666,0,0,0.011393229166666666,37.062174479166664,0)" xlink:href="#bd"/><use transform="matrix(0.011393229166666666,0,0,0.011393229166666666,42.71321614583333,0)" xlink:href="#bC"/><use transform="matrix(0.011393229166666666,0,0,0.011393229166666666,55.82682291666665,0)" xlink:href="#bd"/><use transform="matrix(0.011393229166666666,0,0,0.011393229166666666,61.47786458333332,0)" xlink:href="#bq"/><use transform="matrix(0.011393229166666666,0,0,0.011393229166666666,69.56705729166666,0)" xlink:href="#bG"/></g><use transform="matrix(0.011393229166666666,0,0,0.011393229166666666,0,0)" xlink:href="#bA" id="ai"/><g id="aj"><use transform="matrix(0.011393229166666666,0,0,0.011393229166666666,0,0)" xlink:href="#bk"/><use transform="matrix(0.011393229166666666,0,0,0.011393229166666666,14.970703125,0)" xlink:href="#bq"/><use transform="matrix(0.011393229166666666,0,0,0.011393229166666666,22.376302083333332,0)" xlink:href="#aW"/><use transform="matrix(0.011393229166666666,0,0,0.011393229166666666,36.3671875,0)" xlink:href="#bs"/><use transform="matrix(0.011393229166666666,0,0,0.011393229166666666,49.8681640625,0)" xlink:href="#br"/><use transform="matrix(0.011393229166666666,0,0,0.011393229166666666,65.966796875,0)" xlink:href="#bn"/><use transform="matrix(0.011393229166666666,0,0,0.011393229166666666,79.296875,0)" xlink:href="#bq"/><use transform="matrix(0.011393229166666666,0,0,0.011393229166666666,86.93033854166667,0)" xlink:href="#bd"/><use transform="matrix(0.011393229166666666,0,0,0.011393229166666666,92.58138020833334,0)" xlink:href="#bC"/><use transform="matrix(0.011393229166666666,0,0,0.011393229166666666,105.69498697916666,0)" xlink:href="#bd"/><use transform="matrix(0.011393229166666666,0,0,0.011393229166666666,111.34602864583334,0)" xlink:href="#bq"/><use transform="matrix(0.011393229166666666,0,0,0.011393229166666666,119.43522135416669,0)" xlink:href="#bG"/></g><path fill="#28253d" d="M180 0v-1490h908v168H370v486h669v168H370v500h727V0H180" id="bM"/><path fill="#28253d" d="M65 0l393-574-370-544h210c88 136 192 297 267 435 67-142 176-302 264-435h206L661-564 1053 0H844c-94-144-206-310-287-458C484-308 366-142 273 0H65" id="bN"/><g id="ak"><use transform="matrix(0.011393229166666666,0,0,0.011393229166666666,0,0)" xlink:href="#bM"/><use transform="matrix(0.011393229166666666,0,0,0.011393229166666666,14.025065104166666,0)" xlink:href="#bN"/><use transform="matrix(0.011393229166666666,0,0,0.011393229166666666,26.7626953125,0)" xlink:href="#bs"/><use transform="matrix(0.011393229166666666,0,0,0.011393229166666666,41.0498046875,0)" xlink:href="#bm"/><use transform="matrix(0.011393229166666666,0,0,0.011393229166666666,54.6533203125,0)" xlink:href="#bl"/><use transform="matrix(0.011393229166666666,0,0,0.011393229166666666,68.43912760416667,0)" xlink:href="#bf"/><use transform="matrix(0.011393229166666666,0,0,0.011393229166666666,80.75520833333334,0)" xlink:href="#bm"/></g><g id="al"><use transform="matrix(0.011393229166666666,0,0,0.011393229166666666,0,0)" xlink:href="#bB"/><use transform="matrix(0.011393229166666666,0,0,0.011393229166666666,17.579752604166664,0)" xlink:href="#aW"/><use transform="matrix(0.011393229166666666,0,0,0.011393229166666666,31.570638020833325,0)" xlink:href="#bq"/><use transform="matrix(0.011393229166666666,0,0,0.011393229166666666,38.976236979166664,0)" xlink:href="#bm"/></g><path fill="#28253d" d="M158 0v-1490h180v865h22l478-493h223L593-638 1096 0H865L456-523 338-412V0H158" id="bO"/><path fill="#28253d" d="M370-1490V0H180v-1490h190" id="bP"/><g id="am"><use transform="matrix(0.011393229166666666,0,0,0.011393229166666666,0,0)" xlink:href="#bu"/><use transform="matrix(0.011393229166666666,0,0,0.011393229166666666,14.90234375,0)" xlink:href="#bp"/><use transform="matrix(0.011393229166666666,0,0,0.011393229166666666,28.004557291666664,0)" xlink:href="#bn"/><use transform="matrix(0.011393229166666666,0,0,0.011393229166666666,41.334635416666664,0)" xlink:href="#bO"/><use transform="matrix(0.011393229166666666,0,0,0.011393229166666666,54.140625,0)" xlink:href="#bd"/><use transform="matrix(0.011393229166666666,0,0,0.011393229166666666,59.791666666666664,0)" xlink:href="#bl"/><use transform="matrix(0.011393229166666666,0,0,0.011393229166666666,73.57747395833333,0)" xlink:href="#bv"/><use transform="matrix(0.011393229166666666,0,0,0.011393229166666666,87.88736979166666,0)" xlink:href="#bP"/><use transform="matrix(0.011393229166666666,0,0,0.011393229166666666,94.49544270833333,0)" xlink:href="#bq"/><use transform="matrix(0.011393229166666666,0,0,0.011393229166666666,101.90104166666666,0)" xlink:href="#bm"/><use transform="matrix(0.011393229166666666,0,0,0.011393229166666666,115.50455729166669,0)" xlink:href="#aY"/></g><g id="an"><use transform="matrix(0.011393229166666666,0,0,0.011393229166666666,0,0)" xlink:href="#bF"/><use transform="matrix(0.011393229166666666,0,0,0.011393229166666666,13.193359375,0)" xlink:href="#bd"/><use transform="matrix(0.011393229166666666,0,0,0.011393229166666666,18.844401041666664,0)" xlink:href="#bO"/><use transform="matrix(0.011393229166666666,0,0,0.011393229166666666,31.126302083333325,0)" xlink:href="#bm"/></g><g id="ao"><use transform="matrix(0.011393229166666666,0,0,0.011393229166666666,0,0)" xlink:href="#bP"/><use transform="matrix(0.011393229166666666,0,0,0.011393229166666666,6.266276041666666,0)" xlink:href="#aY"/><use transform="matrix(0.011393229166666666,0,0,0.011393229166666666,26.705729166666664,0)" xlink:href="#bp"/><use transform="matrix(0.011393229166666666,0,0,0.011393229166666666,39.80794270833333,0)" xlink:href="#bv"/><use transform="matrix(0.011393229166666666,0,0,0.011393229166666666,54.11783854166665,0)" xlink:href="#bm"/></g><g id="ap"><use transform="matrix(0.011393229166666666,0,0,0.011393229166666666,0,0)" xlink:href="#br"/><use transform="matrix(0.011393229166666666,0,0,0.011393229166666666,16.0986328125,0)" xlink:href="#bn"/><use transform="matrix(0.011393229166666666,0,0,0.011393229166666666,29.4287109375,0)" xlink:href="#bn"/><use transform="matrix(0.011393229166666666,0,0,0.011393229166666666,42.7587890625,0)" xlink:href="#aW"/><use transform="matrix(0.011393229166666666,0,0,0.011393229166666666,56.749674479166664,0)" xlink:href="#bt"/><use transform="matrix(0.011393229166666666,0,0,0.011393229166666666,70.546875,0)" xlink:href="#bl"/><use transform="matrix(0.011393229166666666,0,0,0.011393229166666666,84.33268229166667,0)" xlink:href="#bq"/></g><g id="aq"><use transform="matrix(0.011393229166666666,0,0,0.011393229166666666,0,0)" xlink:href="#bk"/><use transform="matrix(0.011393229166666666,0,0,0.011393229166666666,14.970703125,0)" xlink:href="#bm"/><use transform="matrix(0.011393229166666666,0,0,0.011393229166666666,28.57421875,0)" xlink:href="#bf"/><use transform="matrix(0.011393229166666666,0,0,0.011393229166666666,40.890299479166664,0)" xlink:href="#bf"/><use transform="matrix(0.011393229166666666,0,0,0.011393229166666666,53.20638020833333,0)" xlink:href="#bd"/><use transform="matrix(0.011393229166666666,0,0,0.011393229166666666,58.857421875,0)" xlink:href="#aW"/><use transform="matrix(0.011393229166666666,0,0,0.011393229166666666,72.84830729166666,0)" xlink:href="#bl"/></g><g id="ar"><use transform="matrix(0.011393229166666666,0,0,0.011393229166666666,0,0)" xlink:href="#bK"/><use transform="matrix(0.011393229166666666,0,0,0.011393229166666666,14.913736979166666,0)" xlink:href="#bm"/><use transform="matrix(0.011393229166666666,0,0,0.011393229166666666,28.517252604166664,0)" xlink:href="#aX"/><use transform="matrix(0.011393229166666666,0,0,0.011393229166666666,37.666015625,0)" xlink:href="#bd"/><use transform="matrix(0.011393229166666666,0,0,0.011393229166666666,43.317057291666664,0)" xlink:href="#bD"/><use transform="matrix(0.011393229166666666,0,0,0.011393229166666666,51.953125,0)" xlink:href="#bd"/><use transform="matrix(0.011393229166666666,0,0,0.011393229166666666,57.604166666666664,0)" xlink:href="#bn"/><use transform="matrix(0.011393229166666666,0,0,0.011393229166666666,71.162109375,0)" xlink:href="#bp"/><use transform="matrix(0.011393229166666666,0,0,0.011393229166666666,84.26432291666667,0)" xlink:href="#bq"/><use transform="matrix(0.011393229166666666,0,0,0.011393229166666666,91.89778645833334,0)" xlink:href="#bd"/><use transform="matrix(0.011393229166666666,0,0,0.011393229166666666,97.54882812500001,0)" xlink:href="#aW"/><use transform="matrix(0.011393229166666666,0,0,0.011393229166666666,111.53971354166669,0)" xlink:href="#bl"/><use transform="matrix(0.011393229166666666,0,0,0.011393229166666666,123.73046875000003,0)" xlink:href="#bL"/><use transform="matrix(0.011393229166666666,0,0,0.011393229166666666,136.96940104166669,0)" xlink:href="#aW"/><use transform="matrix(0.011393229166666666,0,0,0.011393229166666666,150.96028645833334,0)" xlink:href="#bO"/><use transform="matrix(0.011393229166666666,0,0,0.011393229166666666,163.24218750000003,0)" xlink:href="#bm"/><use transform="matrix(0.011393229166666666,0,0,0.011393229166666666,176.84570312500003,0)" xlink:href="#bl"/></g></defs></g></svg>